<svg width="69" height="69" viewBox="0 0 69 69" fill="none" xmlns="http://www.w3.org/2000/svg">
<g id="uim:whatsapp">
<path id="Vector" d="M35.1325 16.9654C32.0881 16.9645 29.0991 17.7792 26.4763 19.3249C23.8534 20.8705 21.6926 23.0906 20.2184 25.7542C18.7442 28.4179 18.0106 31.4278 18.0938 34.4711C18.1769 37.5143 19.0739 40.4797 20.6914 43.0589L21.0968 43.7029L19.3746 49.9876L25.8233 48.2971L26.4443 48.6651C29.0684 50.2222 32.0639 51.0426 35.1153 51.0399H35.1239C39.6428 51.0406 43.977 49.2462 47.1729 46.0514C50.3688 42.8566 52.1647 38.523 52.1655 34.0041C52.1662 29.4851 50.3718 25.151 47.177 21.9551C43.9821 18.7591 39.6486 16.9633 35.1296 16.9625L35.1325 16.9654ZM45.149 41.3166C44.7727 41.9394 44.2713 42.4774 43.6765 42.8966C43.0817 43.3157 42.4064 43.6069 41.6933 43.7518C40.617 43.9367 39.5124 43.8677 38.4675 43.5505C37.476 43.2431 36.5019 42.8823 35.5494 42.4695C32.0124 40.6945 28.9975 38.0304 26.8008 34.7386C25.602 33.215 24.8745 31.3744 24.7078 29.4429C24.6945 28.6458 24.8471 27.8546 25.1559 27.1196C25.4648 26.3846 25.9231 25.7219 26.5018 25.1735C26.6735 24.9789 26.8832 24.8217 27.1181 24.7114C27.353 24.6011 27.608 24.5402 27.8674 24.5324C28.2066 24.5324 28.5488 24.5324 28.8478 24.5496C29.164 24.564 29.5838 24.4289 29.9978 25.4294C30.429 26.4529 31.4525 28.9743 31.579 29.2301C31.6597 29.3645 31.7059 29.5167 31.7134 29.6732C31.7209 29.8297 31.6896 29.9857 31.6221 30.1271C31.4937 30.435 31.3214 30.7226 31.1104 30.981C30.8516 31.28 30.5728 31.648 30.3428 31.878C30.084 32.1339 29.8195 32.4099 30.1156 32.9216C30.886 34.2377 31.846 35.4331 32.9648 36.4694C34.1811 37.5479 35.575 38.4078 37.0846 39.0109C37.5964 39.2696 37.8954 39.2236 38.1944 38.8815C38.4934 38.5394 39.4738 37.3865 39.8159 36.8748C40.158 36.363 40.4973 36.4493 40.9659 36.6189C41.4345 36.7885 43.9559 38.0276 44.4676 38.2864C44.9794 38.5451 45.3215 38.6688 45.448 38.8815C45.5862 39.705 45.4823 40.551 45.149 41.3166Z" fill="#19FFB2"/>
</g>
</svg>
